<svg width="15" height="12" viewBox="0 0 15 12" fill="none" xmlns="http://www.w3.org/2000/svg">
<path d="M14.4192 1.42961C13.9292 1.63961 13.3692 1.77961 12.8092 1.84961C13.3692 1.49961 13.8592 0.939611 14.0692 0.309612C13.5092 0.659612 12.9492 0.869612 12.2492 1.00961C11.7592 0.449611 10.9892 0.0996094 10.2192 0.0996094C8.67921 0.0996094 7.41921 1.35961 7.41921 2.89961C7.41921 3.10961 7.41922 3.31961 7.48922 3.52961C5.17922 3.38961 3.07921 2.26961 1.67921 0.589607C1.46921 1.00961 1.32921 1.49961 1.32921 1.98961C1.32921 2.96961 1.81922 3.80961 2.58922 4.29961C2.09922 4.29961 1.67921 4.15961 1.32921 3.94961C1.32921 5.27961 2.30921 6.4696 3.56921 6.67961C3.35921 6.74961 3.07922 6.74961 2.79922 6.74961C2.58922 6.74961 2.44922 6.74961 2.23922 6.67961C2.58922 7.7996 3.63922 8.63961 4.89922 8.63961C3.91922 9.40961 2.72922 9.82961 1.39922 9.82961C1.18922 9.82961 0.979219 9.82961 0.699219 9.75961C1.95922 10.5296 3.42922 11.0196 5.03922 11.0196C10.2192 11.0196 13.0192 6.74961 13.0192 3.03961V2.68961C13.5792 2.47961 14.0692 1.98961 14.4192 1.42961Z" fill="white"/>
</svg>
