<svg width="14" height="14" viewBox="0 0 14 14" fill="none" xmlns="http://www.w3.org/2000/svg">
<path d="M7 1.26506C8.85542 1.26506 9.10843 1.26506 9.86747 1.26506C10.5422 1.26506 10.8795 1.43374 11.1325 1.51807C11.4699 1.68675 11.7229 1.77109 11.9759 2.0241C12.2289 2.27711 12.3976 2.53012 12.4819 2.86747C12.5663 3.12048 12.6506 3.45783 12.7349 4.13253C12.7349 4.89157 12.7349 5.06024 12.7349 7C12.7349 8.93976 12.7349 9.10843 12.7349 9.86747C12.7349 10.5422 12.5663 10.8795 12.4819 11.1325C12.3133 11.4699 12.2289 11.7229 11.9759 11.9759C11.7229 12.2289 11.4699 12.3976 11.1325 12.4819C10.8795 12.5663 10.5422 12.6506 9.86747 12.7349C9.10843 12.7349 8.93976 12.7349 7 12.7349C5.06024 12.7349 4.89157 12.7349 4.13253 12.7349C3.45783 12.7349 3.12048 12.5663 2.86747 12.4819C2.53012 12.3133 2.27711 12.2289 2.0241 11.9759C1.77109 11.7229 1.60241 11.4699 1.51807 11.1325C1.43374 10.8795 1.3494 10.5422 1.26506 9.86747C1.26506 9.10843 1.26506 8.93976 1.26506 7C1.26506 5.06024 1.26506 4.89157 1.26506 4.13253C1.26506 3.45783 1.43374 3.12048 1.51807 2.86747C1.68675 2.53012 1.77109 2.27711 2.0241 2.0241C2.27711 1.77109 2.53012 1.60241 2.86747 1.51807C3.12048 1.43374 3.45783 1.3494 4.13253 1.26506C4.89157 1.26506 5.14458 1.26506 7 1.26506ZM7 0C5.06024 0 4.89157 0 4.13253 0C3.37349 0 2.86747 0.168675 2.44578 0.33735C2.0241 0.506025 1.60241 0.759037 1.18072 1.18072C0.759037 1.60241 0.590362 1.93976 0.33735 2.44578C0.168675 2.86747 0.0843374 3.37349 0 4.13253C0 4.89157 0 5.14458 0 7C0 8.93976 0 9.10843 0 9.86747C0 10.6265 0.168675 11.1325 0.33735 11.5542C0.506025 11.9759 0.759037 12.3976 1.18072 12.8193C1.60241 13.241 1.93976 13.4096 2.44578 13.6627C2.86747 13.8313 3.37349 13.9157 4.13253 14C4.89157 14 5.14458 14 7 14C8.85542 14 9.10843 14 9.86747 14C10.6265 14 11.1325 13.8313 11.5542 13.6627C11.9759 13.494 12.3976 13.241 12.8193 12.8193C13.241 12.3976 13.4096 12.0602 13.6627 11.5542C13.8313 11.1325 13.9157 10.6265 14 9.86747C14 9.10843 14 8.85542 14 7C14 5.14458 14 4.89157 14 4.13253C14 3.37349 13.8313 2.86747 13.6627 2.44578C13.494 2.0241 13.241 1.60241 12.8193 1.18072C12.3976 0.759037 12.0602 0.590362 11.5542 0.33735C11.1325 0.168675 10.6265 0.0843374 9.86747 0C9.10843 0 8.93976 0 7 0Z" fill="white"/>
<path d="M7 3.37349C4.9759 3.37349 3.37349 4.9759 3.37349 7C3.37349 9.0241 4.9759 10.6265 7 10.6265C9.0241 10.6265 10.6265 9.0241 10.6265 7C10.6265 4.9759 9.0241 3.37349 7 3.37349ZM7 9.36145C5.73494 9.36145 4.63855 8.3494 4.63855 7C4.63855 5.73494 5.6506 4.63855 7 4.63855C8.26506 4.63855 9.36145 5.6506 9.36145 7C9.36145 8.26506 8.26506 9.36145 7 9.36145Z" fill="white"/>
<path d="M10.7108 4.13253C11.1766 4.13253 11.5542 3.75494 11.5542 3.28916C11.5542 2.82338 11.1766 2.44578 10.7108 2.44578C10.2451 2.44578 9.86747 2.82338 9.86747 3.28916C9.86747 3.75494 10.2451 4.13253 10.7108 4.13253Z" fill="white"/>
</svg>
