<svg width="13" height="14" viewBox="0 0 13 14" fill="none" xmlns="http://www.w3.org/2000/svg">
<path fill-rule="evenodd" clip-rule="evenodd" d="M9.17466 4.04707C8.49 3.40701 7.57631 3.05831 6.63095 3.07264C4.90104 3.07264 3.43183 4.21663 2.90797 5.75708C2.63021 6.56433 2.63021 7.43848 2.90797 8.24573H2.9104C3.43669 9.7838 4.90347 10.9278 6.63339 10.9278C7.52637 10.9278 8.293 10.7039 8.88717 10.3085V10.3068C9.58645 9.85307 10.064 9.13897 10.2126 8.33172H6.63096V5.82877H12.8855C12.9635 6.26345 13 6.70767 13 7.14951C13 9.12644 12.2792 10.7978 11.0251 11.9299L11.0264 11.9309C9.92755 12.9244 8.41935 13.5 6.63095 13.5C4.12378 13.5 1.83103 12.1148 0.705362 9.91993C-0.235123 8.08333 -0.235121 5.91952 0.705369 4.08291C1.83104 1.88567 4.12378 0.500438 6.63095 0.500438C8.27803 0.481332 9.86907 1.08796 11.0678 2.19136L9.17466 4.04707Z" fill="black"/>
</svg>
