<svg width="18" height="21" viewBox="0 0 18 21" fill="none" xmlns="http://www.w3.org/2000/svg">
<path fill-rule="evenodd" clip-rule="evenodd" d="M12.375 10.125C12.375 11.989 10.864 13.5 9 13.5C7.13604 13.5 5.625 11.989 5.625 10.125C5.625 8.26104 7.13604 6.75 9 6.75C10.864 6.75 12.375 8.26104 12.375 10.125ZM11.25 10.125C11.25 11.3676 10.2426 12.375 9 12.375C7.75736 12.375 6.75 11.3676 6.75 10.125C6.75 8.88236 7.75736 7.875 9 7.875C10.2426 7.875 11.25 8.88236 11.25 10.125Z" fill="black"/>
<path fill-rule="evenodd" clip-rule="evenodd" d="M0 5.0625L9 0L18 5.0625V15.1875L9 20.25L0 15.1875V5.0625ZM1.125 5.72045L9 1.29077L16.875 5.72045V14.5295L9 18.9592L1.125 14.5295V5.72045Z" fill="black"/>
</svg>
